<svg xmlns="http://www.w3.org/2000/svg" xmlns:xlink="http://www.w3.org/1999/xlink" width="18" height="10.5" viewBox="0 0 18 10.5"><defs><linearGradient id="a" x1="0.5" x2="0.5" y2="1" gradientUnits="objectBoundingBox"><stop offset="0" stop-color="#999"/><stop offset="1" stop-color="#ccc"/></linearGradient></defs><path d="M11.25,10.25a2.25,2.25,0,1,1-4.457-.436A1.4,1.4,0,0,0,8.6,8.036,2.375,2.375,0,0,1,9,8a2.25,2.25,0,0,1,2.25,2.25ZM9.011,5C3.335,5,0,9.913,0,9.913S3.626,15.5,9.011,15.5C14.811,15.5,18,9.913,18,9.913S14.782,5,9.011,5ZM9,14a3.75,3.75,0,1,1,3.75-3.75A3.75,3.75,0,0,1,9,14Z" transform="translate(0 -5)" fill="url(#a)"/></svg>